<?xml version="1.0" standalone="no"?>
<!DOCTYPE svg PUBLIC "-//W3C//DTD SVG 20010904//EN"
 "http://www.w3.org/TR/2001/REC-SVG-20010904/DTD/svg10.dtd">
<svg version="1.0" xmlns="http://www.w3.org/2000/svg"
 width="618.000000pt" height="501.000000pt" viewBox="0 0 618.000000 501.000000"
 preserveAspectRatio="xMidYMid meet">

<g transform="translate(0.000000,501.000000) scale(0.100000,-0.100000)"
fill="#000000" stroke="none">
<path d="M2067 4270 c-188 -32 -358 -122 -488 -257 -106 -110 -167 -214 -216
-370 l-28 -88 0 -1065 0 -1065 28 -88 c49 -156 110 -260 216 -370 108 -112
227 -184 388 -234 l88 -28 955 -3 c661 -2 979 0 1032 8 278 40 526 218 653
470 41 81 73 180 85 268 8 53 10 388 8 1092 l-3 1015 -28 88 c-50 161 -122
280 -234 388 -110 107 -214 168 -370 216 l-88 28 -975 1 c-536 1 -997 -2
-1023 -6z m1152 -905 c188 -45 338 -186 406 -382 65 -188 61 -471 -10 -646
-77 -189 -262 -331 -542 -417 -62 -19 -113 -38 -113 -42 0 -17 317 -42 435
-33 88 6 198 20 243 32 22 5 22 3 22 -80 0 -47 -4 -88 -8 -91 -21 -13 -191
-28 -307 -28 -91 0 -181 8 -300 27 -125 19 -225 28 -377 32 l-208 6 0 82 0 82
153 6 c227 10 420 48 530 103 33 17 36 38 5 31 -335 -82 -575 52 -668 373 -31
107 -39 334 -15 451 52 258 211 440 433 493 77 19 242 19 321 1z"/>
<path d="M2940 3196 c-196 -57 -291 -229 -291 -526 0 -325 111 -495 348 -532
129 -20 275 23 346 101 94 104 129 220 129 426 0 212 -36 327 -133 431 -71 74
-147 106 -264 110 -54 2 -108 -2 -135 -10z"/>
</g>
</svg>
